<svg width="23" height="23" viewBox="0 0 23 23" fill="none" xmlns="http://www.w3.org/2000/svg">
<g clip-path="url(#clip0_0_64)">
<path d="M19.8696 6.98503L7.58182 2.45735C7.40077 2.39064 7.20063 2.39858 7.02544 2.47943C6.85025 2.56028 6.71434 2.70741 6.64763 2.88846L2.11995 15.1762C2.05324 15.3572 2.06118 15.5574 2.14203 15.7326C2.22288 15.9078 2.37001 16.0437 2.55106 16.1104L14.8388 20.6381C15.0199 20.7048 15.22 20.6968 15.3952 20.616C15.5704 20.5351 15.7063 20.388 15.773 20.207L20.3007 7.91922C20.3674 7.73817 20.3594 7.53803 20.2786 7.36284C20.1977 7.18764 20.0506 7.05174 19.8696 6.98503ZM14.6592 19.0212L3.73679 14.9966L7.7614 4.07419L18.6838 8.0988L14.6592 19.0212Z" fill="#0285E4"/>
</g>
<defs>
<clipPath id="clip0_0_64">
<rect width="17.4605" height="17.4605" fill="white" transform="translate(6.03693 0.337402) rotate(20.2274)"/>
</clipPath>
</defs>
</svg>
